<?xml version="1.0" standalone="no"?>
<!DOCTYPE svg PUBLIC "-//W3C//DTD SVG 20010904//EN"
 "http://www.w3.org/TR/2001/REC-SVG-20010904/DTD/svg10.dtd">
<svg version="1.0" xmlns="http://www.w3.org/2000/svg"
 width="225.000000pt" height="225.000000pt" viewBox="0 0 225.000000 225.000000"
 preserveAspectRatio="xMidYMid meet">
<metadata>
Created by potrace 1.10, written by Peter Selinger 2001-2011
</metadata>
<g transform="translate(0.000000,225.000000) scale(0.100000,-0.100000)"
fill="#000000" stroke="none">
<path d="M555 1356 c-37 -37 -31 -85 19 -131 18 -17 21 -31 21 -101 0 -78 -1
-82 -32 -113 -39 -38 -43 -76 -12 -115 20 -25 25 -26 118 -26 59 0 101 4 108
11 9 9 20 9 43 -1 49 -20 244 -9 294 17 l40 20 17 -21 c15 -18 28 -21 92 -21
93 0 106 9 103 76 -1 27 1 52 6 55 4 3 8 -4 8 -15 0 -11 5 -23 10 -26 6 -4 17
-22 25 -41 16 -40 32 -44 41 -10 7 29 41 63 52 52 4 -4 7 -22 7 -39 0 -39 30
-57 95 -57 72 0 95 17 96 70 1 39 -3 49 -31 76 -32 30 -33 32 -30 114 2 79 4
84 33 106 26 21 30 30 28 71 -1 59 -23 73 -111 73 -72 0 -109 -16 -113 -50 -2
-14 -11 -33 -19 -42 -8 -9 -12 -21 -9 -26 3 -5 -1 -15 -8 -21 -17 -14 -19 -11
-37 52 -21 73 -36 82 -135 82 -73 0 -85 -3 -101 -22 l-17 -21 -39 19 c-33 17
-60 20 -185 21 -81 0 -193 2 -249 5 -99 4 -103 3 -128 -21z m225 -51 c0 -43
-1 -45 -30 -45 l-30 0 0 -135 0 -135 30 0 c29 0 30 -2 30 -45 l0 -45 -110 0
-110 0 0 45 c0 44 1 45 33 45 l32 0 0 135 0 135 -32 0 c-32 0 -33 1 -33 45 l0
45 110 0 110 0 0 -45z m320 30 c43 -22 60 -53 60 -108 0 -39 -5 -53 -27 -75
l-28 -27 28 -27 c22 -22 27 -35 27 -75 0 -100 -41 -123 -220 -123 l-130 0 0
45 c0 43 1 45 30 45 l30 0 0 135 0 135 -30 0 c-29 0 -30 2 -30 45 l0 45 130 0
c97 0 139 -4 160 -15z m274 0 c4 -13 -10 -15 -94 -15 -82 0 -100 3 -100 15 0
12 17 15 94 15 74 0 95 -3 100 -15z m316 0 c0 -12 -17 -15 -95 -15 -78 0 -95
3 -95 15 0 12 17 15 95 15 78 0 95 -3 95 -15z m-296 -60 c5 -13 -11 -15 -104
-15 -91 0 -110 3 -110 15 0 12 18 15 104 15 83 0 105 -3 110 -15z m296 0 c0
-12 -18 -15 -105 -15 -87 0 -105 3 -105 15 0 12 18 15 105 15 87 0 105 -3 105
-15z m-854 -47 c7 -5 12 -46 13 -103 2 -93 1 -95 -24 -107 -19 -8 -31 -8 -50
0 -24 11 -25 15 -25 101 0 79 3 93 21 110 20 19 40 18 65 -1z m390 -111 c-1
-57 -5 -80 -16 -87 -11 -7 -17 -4 -23 13 -5 12 -16 36 -24 54 -14 29 -14 35
-1 55 8 13 18 35 22 51 6 26 7 27 25 10 16 -15 19 -32 17 -96z m192 96 c3 -10
-18 -13 -82 -13 -71 0 -86 3 -86 15 0 13 14 15 82 13 54 -2 83 -7 86 -15z
m212 2 c0 -12 -17 -15 -90 -15 -75 0 -88 2 -84 15 5 12 25 15 90 15 68 0 84
-3 84 -15z m-199 -57 c0 -10 2 -10 6 0 7 19 193 17 193 -2 0 -12 -25 -15 -140
-15 -105 -1 -140 2 -141 12 0 9 -2 9 -6 0 -7 -19 -93 -17 -93 2 0 12 17 15 90
15 65 0 90 -3 91 -12z m-81 -63 c0 -11 -12 -15 -50 -15 -38 0 -50 4 -50 15 0
11 12 15 50 15 38 0 50 -4 50 -15z m158 3 c-3 -8 -29 -14 -70 -16 -52 -2 -67
0 -71 13 -5 13 5 15 69 15 56 0 75 -3 72 -12z m122 -3 c0 -11 -12 -15 -50 -15
-38 0 -50 4 -50 15 0 11 12 15 50 15 38 0 50 -4 50 -15z m-280 -60 c0 -11 -12
-15 -50 -15 -38 0 -50 4 -50 15 0 11 12 15 50 15 38 0 50 -4 50 -15z m138 3
c-7 -20 -94 -23 -101 -3 -5 12 3 15 49 15 40 0 55 -4 52 -12z m142 -3 c0 -11
-12 -15 -50 -15 -38 0 -50 4 -50 15 0 11 12 15 50 15 38 0 50 -4 50 -15z
m-280 -60 c0 -12 -16 -15 -85 -15 -69 0 -85 3 -85 15 0 12 16 15 85 15 69 0
85 -3 85 -15z m118 3 c-7 -20 -54 -22 -61 -4 -5 13 1 16 29 16 24 0 34 -4 32
-12z m222 -3 c0 -12 -16 -15 -80 -15 -64 0 -80 3 -80 15 0 12 16 15 80 15 64
0 80 -3 80 -15z m-340 -60 c0 -12 -16 -15 -85 -15 -69 0 -85 3 -85 15 0 12 16
15 85 15 69 0 85 -3 85 -15z m340 0 c0 -12 -16 -15 -80 -15 -64 0 -80 3 -80
15 0 12 16 15 80 15 64 0 80 -3 80 -15z"/>
<path d="M830 1305 c0 -21 5 -25 30 -25 l30 0 0 -155 0 -155 -30 0 c-25 0 -30
-4 -30 -25 l0 -25 126 0 c125 0 126 0 155 29 23 23 29 38 29 72 0 35 -6 47
-33 73 l-33 31 33 31 c27 26 33 39 33 73 0 34 -6 49 -29 72 -29 29 -30 29
-155 29 l-126 0 0 -25z m108 -4 c10 -6 10 -10 -3 -21 -12 -10 -18 -10 -30 0
-26 22 3 41 33 21z m137 -86 l0 -60 -62 -3 -63 -3 0 66 0 66 63 -3 62 -3 0
-60z m-125 -90 c0 -7 -7 -18 -15 -25 -13 -11 -15 -7 -15 25 0 32 2 36 15 25 8
-7 15 -18 15 -25z m125 -90 l0 -60 -62 -3 -63 -3 0 66 0 66 63 -3 62 -3 0 -60z
m-141 -88 c-20 -12 -37 4 -28 27 6 16 8 16 26 0 17 -16 17 -19 2 -27z"/>
<path d="M970 1215 l0 -45 43 0 42 0 -3 45 -4 45 -39 0 -39 0 0 -45z"/>
<path d="M970 1035 l0 -45 39 0 39 0 4 45 3 45 -42 0 -43 0 0 -45z"/>
</g>
</svg>
